# xmcd
#
# Track frame offsets:
#	150
#	17015
#	32292
#	49734
#	71349
#	89864
#	105846
#	124241
#	143908
#	182728
#	198320
#	214115
#	232443
#	253343
#	278323
#	294733
#	316855
#
# Disc length: 4394
#
# Revision: 3
# Processed by: cddbd v1.5.1PL0 Copyright (c) Steve Scherf et al.
# Submitted via: DiscPlay 4.0.4
# Normalized: r1:DSETVAR1,TDELIM( - ),TSWAP
#
DISCID=f9112811
DTITLE=Various Artist - Het Beste Van 2 Meter Sessies
DYEAR=1900
DGENRE=
TTITLE0=Crowded House - Don't Dream It's Over
TTITLE1=Julian Lennon - Salt Water
TTITLE2=Paul Weller - Wild Wood
TTITLE3='75 - The Connels - '74
TTITLE4=John Hiatt - Have A Little Faith In Me
TTITLE5=Tasmin Archer - Sleeping Satelite
TTITLE6=OMC - How Bizarre
TTITLE7=Harry Muskee - Window Of My Eyes
TTITLE8=Nils Lofgren - Shine Silently
TTITLE9=Living Color - Solace Of You
TTITLE10=Fun Lovin' Criminals - Scooby Snacks
TTITLE11=The Curch - Under The Milky Way
TTITLE12=K's Choice - Not An Addict
TTITLE13=Lenny Kravitz - Rosemary
TTITLE14=Leah Andreone - It's Alright, It's Okay
TTITLE15=Screaming Trees - Dollar Bill
TTITLE16=The Presidents of the USA - Peaches
EXTD=
EXTT0=
EXTT1=
EXTT2=
EXTT3=
EXTT4=
EXTT5=
EXTT6=
EXTT7=
EXTT8=
EXTT9=
EXTT10=
EXTT11=
EXTT12=
EXTT13=
EXTT14=
EXTT15=
EXTT16=
PLAYORDER=
